<?xml version="1.0" encoding="iso-8859-1"?>
<!-- Uploaded to: SVG Repo, www.svgrepo.com, Generator: SVG Repo Mixer Tools -->
<svg height="800px" width="800px" version="1.1" id="Layer_1" xmlns="http://www.w3.org/2000/svg" xmlns:xlink="http://www.w3.org/1999/xlink" 
	 viewBox="0 0 512 512" xml:space="preserve">
<path style="fill:#F9A926;" d="M507.042,100.529L411.359,4.846c-6.312-6.311-17.583-6.311-23.893,0L303.842,88.47l-23.892,24.005
	l-35.953,35.839c-3.156,3.156-4.96,7.438-4.96,11.946s1.803,8.791,4.96,11.946l95.683,95.571c3.267,3.268,7.665,4.959,11.945,4.959
	c4.284,0,8.678-1.69,11.947-4.959l143.469-143.356c3.156-3.156,4.958-7.438,4.958-11.946
	C512,107.967,510.198,103.683,507.042,100.529z"/>
<path style="fill:#FFC033;" d="M267.891,339.568l-95.571-95.684c-3.156-3.156-7.438-4.959-11.947-4.959
	c-4.507,0-8.791,1.803-11.947,4.959L136.48,255.83l-23.893,24.005l-24.005,23.893L64.689,327.62l-23.892,23.894l-35.84,35.839
	C1.802,390.509,0,394.791,0,399.299c0,4.508,1.802,8.791,4.958,11.946l95.683,95.683c3.156,3.156,7.441,4.959,11.947,4.959
	c4.508,0,8.791-1.803,11.947-4.959l131.408-131.522l11.947-11.946C274.54,356.811,274.54,346.216,267.891,339.568z"/>
<g>
	<path style="fill:#99522E;" d="M351.627,160.259c-3.268,3.268-7.663,4.959-11.945,4.959c-4.395,0-8.678-1.691-11.945-4.959
		l-47.785-47.785l23.89-24.004l47.785,47.898C358.164,142.904,358.164,153.611,351.627,160.259z"/>
	<path style="fill:#99522E;" d="M399.412,112.475c-3.267,3.268-7.663,4.846-11.945,4.846c-4.283,0-8.678-1.578-11.945-4.846
		l-47.785-47.898l23.892-23.893l47.785,47.785C406.062,95.119,406.062,105.825,399.412,112.475z"/>
</g>
<g>
	<path style="fill:#A6673A;" d="M112.588,399.299c-3.381,3.268-7.663,4.959-12.06,4.959c-4.282,0-8.565-1.69-11.945-4.959
		l-47.785-47.785L64.69,327.62l47.898,47.786C119.126,382.055,119.126,392.649,112.588,399.299z"/>
	<path style="fill:#A6673A;" d="M160.374,351.514c-3.381,3.268-7.663,4.959-11.947,4.959c-4.394,0-8.677-1.691-11.945-4.959
		l-47.898-47.786l24.005-23.893l47.785,47.785C166.911,334.157,166.911,344.865,160.374,351.514z"/>
</g>
<path style="fill:#88CC2A;" d="M184.266,64.577c-6.31-6.311-17.58-6.311-23.893,0L64.69,160.26
	c-3.156,3.156-4.959,7.438-4.959,11.945c0,4.508,1.802,8.791,4.958,11.946L339.68,459.03l119.463-119.463L184.266,64.577z"/>
<polygon style="fill:#7FB335;" points="256.084,375.467 339.681,459.031 459.144,339.568 256.084,136.424 "/>
<path style="fill:#D7EBFF;" d="M399.428,416.215c-4.325,0-8.651-1.651-11.952-4.953l-274.94-274.934
	c-6.603-6.598-6.603-17.306,0-23.905c6.603-6.603,17.302-6.603,23.905,0l274.94,274.934c6.603,6.598,6.603,17.306,0,23.905
	C408.079,414.564,403.754,416.215,399.428,416.215z"/>
<path style="fill:#A6673A;" d="M76.637,196.116l-59.732-59.745c-19.755-19.899-19.734-52.092,0-71.809l47.777-47.777
	c19.7-19.728,51.904-19.734,71.759-0.05l59.785,59.785L76.637,196.116z"/>
<path style="fill:#BDDEFF;" d="M256.084,279.872l131.391,131.39c3.302,3.302,7.628,4.953,11.952,4.953s8.651-1.651,11.952-4.953
	c6.603-6.598,6.603-17.306,0-23.905L256.084,232.062V279.872z"/>
<path style="fill:#FECC97;" d="M507.042,506.929c-4.375,4.375-10.847,6.188-17.243,4.057L346.33,463.088
	c-2.592-0.789-4.845-2.141-6.649-4.057l119.463-119.463c1.915,1.803,3.268,4.057,4.057,6.649L511.1,489.686
	C513.128,495.659,511.55,502.42,507.042,506.929z"/>
<path style="fill:#99522E;" d="M493.949,438.314l-55.521,55.521l51.37,17.151c6.396,2.131,12.868,0.318,17.243-4.057
	c4.508-4.508,6.086-11.27,4.057-17.243L493.949,438.314z"/>
</svg>